<?xml version="1.0" encoding="UTF-8"?>
<svg viewBox="0 0 304.25 109.9" xmlns="http://www.w3.org/2000/svg">
    <g transform="translate(32)" fill="#006C4F">
        <rect width="240" height="83"/>
    </g>
    <g transform="matrix(1.5945 0 0 1.5945 52 3.0097)" fill="#fff">
        <path d="m13.664 40h-13.088c-0.32 0-0.576-0.25602-0.576-0.576s0.25602-0.57596 0.576-0.57596h12.512v-4.544h-10.048c-1.408 0-3.04-0.38398-3.04-3.296v-22.432c0-0.32 0.25602-0.576 0.576-0.576h5.856c0.32 0 0.576 0.25602 0.576 0.576l0.031992 21.44c0 0.32-0.25602 0.57596-0.576 0.57596s-0.57596-0.25598-0.57596-0.57596l-0.031992-20.864h-4.704v21.856c0 1.984 0.736 2.144 1.888 2.144h10.624c0.32 0 0.576 0.25602 0.576 0.576v5.696c0 0.32-0.25602 0.576-0.576 0.576zm16.656 0.48h-0.063984c-3.936-0.032969-4.64-3.0323-4.928-4.3176l-0.031992-0.23078c-0.448-1.8787-0.38402-6.592-0.35203-9.7232v-1.7798c0-4.252 0.096016-7.4492 0.64-8.998 0.54404-1.5491 1.408-2.3731 2.624-2.3731 1.472 0 2.272 0.69216 2.816 2.406 0.608 1.9446 0.576 6.2624 0.576 8.3388 0 0.9888 0.031992 6.0316-0.32 8.108-0.19199 1.1536-0.544 2.4061-1.632 2.9664-0.28801 0.13184-0.64 0.032969-0.768-0.26371-0.12801-0.2966-0.031992-0.6592 0.25602-0.79096 0.512-0.26371 0.8-0.857 0.992-2.1094 0.32-2.0436 0.35199-7.3172 0.35199-7.9104 0-1.8458 0-6.1964-0.544-7.9764-0.416-1.3513-0.896-1.582-1.728-1.582-0.48 0-1.056 0.16476-1.536 1.5491-0.512 1.4832-0.57596 5.0428-0.57596 8.6356 0 0.49436-0.032031 1.0876-0.032031 1.7798-0.031992 3.0653-0.063984 7.7456 0.35203 9.4596l0.063984 0.2307c0.32 1.3514 0.768 3.3949 3.84 3.3949h0.063984c4.704-0.03293 6.368-8.0752 6.368-14.964 0-10.646-2.656-15.623-8.416-15.623-5.824 0-8.544 4.7792-8.544 15.063 0 5.636 0.768 9.7232 2.336 12.492 0.095976 0.13188 0.28801 0.4944 0.64 0.92288 0.19199 0.2307 0.16 0.62624-0.064024 0.82404-0.22398 0.19774-0.60796 0.19774-0.8-0.0659-0.41596-0.4944-0.64-0.88996-0.73596-1.0548-1.728-2.9993-2.528-7.1524-2.528-13.118 0-10.943 3.168-16.249 9.696-16.249 8.576 0 9.6 9.5912 9.6 16.81 0 7.8116-2.016 16.15-7.616 16.15zm22.896 0h-0.032031c-1.536 0-2.944-0.92288-3.84-2.5379-0.92796-1.681-1.024-6.5592-1.024-10.053v-0.1648-3.1971c0-2.8675 0.16-6.9876 0.896-9.064 0.60796-1.7139 1.472-2.4391 2.976-2.4391h0.031992c2.464 0 2.656 3.5926 2.752 6.8888l5.12-0.42848c-0.576-7.1192-3.296-10.778-8.032-10.778-2.112 0-3.872 0.69216-5.216 2.0765-3.008 3.0653-3.616 8.998-3.616 13.415 0 6.2952 1.12 10.679 3.328 13.019 0.22398 0.23074 0.19199 0.62624-0.031992 0.85696-0.22402 0.23074-0.576 0.19777-0.8-0.032969-2.464-2.6038-3.648-7.1524-3.648-13.843 0-4.6472 0.672-10.91 3.968-14.272 1.568-1.615 3.584-2.4061 5.984-2.4061h0.064024c3.84 0 8.544 2.1754 9.216 12.459 0 0.32961-0.22398 0.59324-0.544 0.6262l-6.304 0.56032c-0.16 0-0.28797-0.065936-0.41596-0.16476-0.12801-0.098908-0.22402-0.26371-0.22402-0.42852v-0.2307c-0.063984-2.5709-0.19199-6.0976-1.632-6.0976-0.89596 0-1.408 0.2307-1.92 1.615-0.73596 2.1424-0.8 7.0864-0.8 8.7012v3.1642 0.1648c0 6.4932 0.448 8.7344 0.86404 9.4596 0.704 1.2525 1.728 1.9446 2.88 1.9446h0.031992c5.216-0.03293 6.4-7.0864 6.656-10.053l-4.992-0.36258v0.49442c-0.031992 1.8128-0.063984 4.3176-1.696 5.4712-0.25602 0.19774-0.608 0.098828-0.8-0.1648-0.19203-0.26371-0.12801-0.62624 0.12797-0.82404 1.152-0.79104 1.184-2.9664 1.216-4.5156 0-0.42844 0-0.824 0.031992-1.1536s0.28801-0.52736 0.608-0.52736l6.176 0.46144c0.32 0 0.512 0.29664 0.512 0.62624-0.16 2.7357-1.248 11.734-7.872 11.734zm34.176-1.184s0 0.35199-0.095976 0.48c-0.096016 0.12797-0.28801 0.22398-0.448 0.22398h-5.824-0.16c-0.063984 0-0.16-0.096016-0.22398-0.12801-0.063984-0.063984-0.096016-0.12801-0.12801-0.19199 0-0.031992-0.063984-0.12801-0.063984-0.16l-0.832-4.416-0.32-1.76h-2.528c-0.32 0-0.576-0.25598-0.576-0.57596s0.25602-0.576 0.576-0.576h2.944c0.28801-0.031992 0.608 0.19199 0.64 0.48l0.38402 2.208 0.73596 3.968h4.64l-2.624-10.944-4.512-18.752h-5.28l-4.48 18.784-2.624 10.912h4.672l1.6-8.8c0.32-1.76 1.024-2.848 3.36-2.848h0.064024 0.063984 1.792l-1.792-9.696-1.248 6.784c-0.063984 0.32-0.35199 0.512-0.672 0.448-0.32-0.064024-0.544-0.32-0.48-0.64l1.824-9.856c0.031992-0.25602 0.28797-0.448 0.57596-0.448s0.512 0.19199 0.54404 0.448l2.496 13.408v0.063984 0.19199c0 0.064024-0.095976 0.16-0.12801 0.22402-0.031992 0.063984-0.12797 0.12801-0.19199 0.16-0.063984 0.031992-0.12801 0.063984-0.19199 0.063984h-0.063984-2.464l-0.063984-0.031992-0.064024 0.031992c-1.6 0-1.984 0.448-2.24 1.92l-1.696 9.248c0 0.031992-0.031992 0.12801-0.031992 0.16-0.032031 0.063984-0.096016 0.16-0.16 0.19199-0.064024 0.064024-0.16 0.12801-0.22402 0.12801h-0.16-5.856c-0.16 0-0.35203-0.096016-0.448-0.22398-0.096016-0.12801-0.16-0.32-0.12801-0.48l2.784-11.648 4.608-19.2c0.064024-0.25602 0.32-0.448 0.576-0.448h6.176c0.25602 0 0.48 0.19199 0.54404 0.448l4.64 19.2zm26.56-31.296c0.32 0 0.576 0.25602 0.576 0.576v30.848c0 0.32-0.25602 0.576-0.576 0.576h-5.952c-0.32 0-0.576-0.25602-0.576-0.576v-10.912-0.67199c0-2.272 0.032031-3.328-1.12-4.672l-10.08-12.416c-0.12797-0.12801-0.22398-0.28801-0.35199-0.448-0.57596-0.704-0.928-1.152-2.432-1.152h-1.728v29.696h4.544v-19.296-0.031992c0-0.063984 0-0.16 0.031992-0.22398 0.031992-0.064024 0.095976-0.12801 0.16-0.16 0.063984-0.064024 0.16-0.12801 0.22398-0.12801 0.031992 0 0.12801-0.031992 0.16-0.031992 0.064024 0 0.16 0.031992 0.22402 0.063984 0.063984 0.031992 0.16 0.063984 0.19199 0.12801v0.031992l5.152 6.336c0.19199 0.25598 0.16 0.60796-0.096016 0.8-0.25598 0.19199-0.60796 0.19199-0.8-0.064024l-4.128-5.12v18.272c0 0.32-0.25602 0.576-0.576 0.576h-5.664c-0.32 0-0.576-0.25602-0.576-0.576v-30.848c0-0.32 0.25602-0.576 0.576-0.576h2.304c2.048 0 2.624 0.8 3.296 1.6 0.095976 0.12801 0.22398 0.25602 0.35199 0.38398l10.112 12.448c1.376 1.664 1.376 3.072 1.376 5.408l-0.032031 0.672 0.032031 10.336h4.8v-29.696h-1.664c-1.76 0-1.76-0.031992-2.304 0.86404-0.448 0.704-3.328 5.536-3.36 5.568-0.16 0.25602-0.512 0.35203-0.768 0.19203s-0.35199-0.51204-0.19199-0.768c0.12801-0.19199 2.912-4.864 3.36-5.6 0.89596-1.408 1.408-1.408 3.296-1.408h2.208zm10.904 32h-5.76c-0.32 0-0.576-0.25602-0.576-0.576v-21.376c0-2.912 1.632-3.296 3.008-3.296h0.70398c0.32 0 0.576 0.25602 0.576 0.576s-0.25602 0.57596-0.576 0.57596h-0.70398c-1.12 0-1.856 0.16-1.856 2.144v20.8h4.64v-29.696h-4.64v2.912c0 0.32-0.25598 0.576-0.57596 0.576s-0.576-0.25602-0.576-0.576v-3.488c0-0.32 0.25602-0.576 0.576-0.576h5.76c0.32 0 0.57596 0.25602 0.57596 0.576v30.848c0 0.32-0.25598 0.576-0.57596 0.576z"/>
    </g>
    <g transform="matrix(.8 0 0 .8 -.096 93.616)" fill="#006C4F">
        <path d="m7.94 5.84 6.02 14.16h-1.96l-1.44-3.48h-7.08l-1.46 3.48h-1.9l6.24-14.16h1.58zm-0.86 2.16-2.94 6.96h5.78l-2.8-6.96h-0.04zm14.068-2.16v12.6h6.48v1.56h-8.16v-14.16h1.68zm13.628 0v12.6h6.48v1.56h-8.16v-14.16h1.68zm30.636 0v1.56h-4.68v12.6h-1.68v-12.6h-4.68v-1.56h11.04zm9.468 0q2.78 0 4.09 0.92t1.31 2.96q0 1.5-0.89 2.47t-2.65 1.29l4.02 6.52h-2.06l-3.84-6.36h-2.16v6.36h-1.68v-14.16h3.86zm-0.18 6.24q1.98 0 2.88-0.55t0.9-1.79q0-1.2-0.81-1.77t-2.51-0.57h-2.46v4.68h2zm18.348-6.24 6.02 14.16h-1.96l-1.44-3.48h-7.08l-1.46 3.48h-1.9l6.24-14.16h1.58zm-0.86 2.16-2.94 6.96h5.78l-2.8-6.96h-0.04zm14.508-2.16 8.2 11.76h0.04v-11.76h1.68v14.16h-2.12l-8.2-11.76h-0.04v11.76h-1.68v-14.16h2.12zm21.208-0.36q2.58 0 3.96 1.66l-1.38 1.2q-0.8-1.26-2.58-1.3-1.34 0-2.18 0.64t-0.84 1.74q0 0.96 0.64 1.52t2.4 1.1q2.28 0.66 3.23 1.61t0.95 2.57q0 1.88-1.4 3t-3.58 1.14q-1.46 0-2.6-0.52t-1.76-1.44l1.44-1.18q0.46 0.76 1.28 1.17t1.74 0.41q1.26 0 2.17-0.71t0.91-1.75q0-0.94-0.53-1.48t-1.75-0.92l-1.62-0.54q-1.82-0.62-2.57-1.55t-0.75-2.29q0-1.8 1.34-2.93t3.48-1.15zm12.288 0.36v12.6h6.48v1.56h-8.16v-14.16h1.68zm18.128 0 6.02 14.16h-1.96l-1.44-3.48h-7.08l-1.46 3.48h-1.9l6.24-14.16h1.58zm-0.86 2.16-2.94 6.96h5.78l-2.8-6.96h-0.04zm21.888-2.16v1.56h-4.68v12.6h-1.68v-12.6h-4.68v-1.56h11.04zm7.288 0v14.16h-1.68v-14.16h1.68zm13.728-0.36q3.2 0 5.28 2.1t2.12 5.34q-0.02 3.3-2.14 5.36t-5.26 2.08q-3.2 0-5.28-2.11t-2.12-5.33q0-3.2 2.08-5.3t5.32-2.14zm-5.6 7.44q0 2.54 1.6 4.19t4 1.69q2.4 0 3.98-1.68t1.62-4.2q0-2.46-1.56-4.15t-4.06-1.73q-2.44 0.02-3.99 1.71t-1.59 4.17zm21.448-7.08 8.2 11.76h0.04v-11.76h1.68v14.16h-2.12l-8.2-11.76h-0.04v11.76h-1.68v-14.16h2.12zm32.836-0.36q3.2 0 5.28 2.1t2.12 5.34q-0.02 3.3-2.14 5.36t-5.26 2.08q-3.2 0-5.28-2.11t-2.12-5.33q0-3.2 2.08-5.3t5.32-2.14zm-5.6 7.44q0 2.54 1.6 4.19t4 1.69q2.4 0 3.98-1.68t1.62-4.2q0-2.46-1.56-4.15t-4.06-1.73q-2.44 0.02-3.99 1.71t-1.59 4.17zm21.448-7.08 8.2 11.76h0.04v-11.76h1.68v14.16h-2.12l-8.2-11.76h-0.04v11.76h-1.68v-14.16h2.12zm25.968 0v1.56h-7.22v4.44h6.74v1.56h-6.74v5.04h7.58v1.56h-9.26v-14.16h8.9zm20.076 0q2.28 0 3.55 0.98t1.31 2.9q0 1.86-1.24 2.87t-3.32 1.05h-2.92v6.36h-1.68v-14.16h4.3zm0.3 6.24q1.28 0 2.02-0.62t0.74-1.72-0.73-1.72-2.03-0.62h-2.92v4.68h2.92zm12.568-6.24v12.6h6.48v1.56h-8.16v-14.16h1.68zm18.128 0 6.02 14.16h-1.96l-1.44-3.48h-7.08l-1.46 3.48h-1.9l6.24-14.16h1.58zm-0.86 2.16-2.94 6.96h5.78l-2.8-6.96h-0.04zm18.768-2.52q1.66 0 2.94 0.59t2.06 1.63l-1.46 1.06q-0.64-0.86-1.58-1.29t-1.96-0.43q-2.26 0-3.81 1.72t-1.59 4.16q0 2.52 1.54 4.19t3.86 1.69q2.54 0 4.1-1.98l1.26 1.06q-1.86 2.48-5.36 2.48-3.1 0-5.13-2.14t-2.07-5.3q0-3.16 2.05-5.28t5.15-2.16zm20.228 0.36v1.56h-7.22v4.44h6.74v1.56h-6.74v5.04h7.58v1.56h-9.26v-14.16h8.9z"/>
    </g>
</svg>
